<?xml version="1.0" standalone="no"?>
<!DOCTYPE svg PUBLIC "-//W3C//DTD SVG 20010904//EN"
 "http://www.w3.org/TR/2001/REC-SVG-20010904/DTD/svg10.dtd">
<svg version="1.0" xmlns="http://www.w3.org/2000/svg"
 width="1000px" viewBox="0 0 900 563">

<g transform="translate(0.000000,563.000000) scale(0.100000,-0.100000)"
fill="#000000" stroke="none">
<path d="M1350 5433 c-350 -33 -636 -149 -821 -335 -140 -140 -219 -291 -266
-508 -17 -80 -18 -178 -18 -1770 0 -1810 -3 -1700 51 -1874 108 -342 400 -600
774 -685 90 -20 119 -22 345 -27 l230 -4 151 122 c125 102 364 295 768 622
219 176 268 230 320 347 50 115 56 180 56 652 l0 437 -535 0 -535 0 0 -551 0
-550 -26 -54 c-81 -172 -315 -207 -437 -65 -71 83 -67 -14 -67 1658 0 1495 0
1501 21 1557 26 69 58 107 118 143 64 38 174 39 245 3 57 -30 101 -78 127
-138 18 -42 19 -76 19 -594 l0 -549 535 0 535 0 0 588 c0 638 -4 696 -56 857
-83 255 -256 447 -519 578 -129 64 -306 112 -505 136 -76 10 -424 13 -510 4z"/>
<path d="M4056 5323 c-3 -10 -12 -47 -20 -83 -7 -36 -31 -139 -51 -230 -36
-158 -67 -299 -156 -700 -23 -102 -52 -232 -65 -290 -13 -58 -35 -157 -49
-220 -14 -63 -36 -164 -50 -225 -14 -60 -30 -130 -35 -155 -6 -25 -17 -74 -25
-110 -8 -36 -19 -85 -25 -110 -11 -51 -21 -97 -80 -365 -23 -104 -46 -206 -50
-225 -4 -19 -17 -78 -29 -130 -12 -52 -28 -124 -36 -160 -15 -70 -60 -269 -75
-335 -6 -22 -28 -123 -50 -225 -23 -102 -47 -210 -54 -240 -7 -30 -10 -56 -5
-58 4 -2 44 26 89 62 182 150 247 202 490 397 140 113 335 270 434 349 459
373 582 470 592 470 6 0 89 -66 185 -146 96 -80 197 -165 225 -188 28 -22 171
-142 319 -266 147 -124 285 -238 305 -255 53 -43 454 -378 460 -385 21 -24
182 -152 186 -148 2 3 -15 88 -40 189 -45 188 -109 462 -152 649 -14 58 -29
121 -34 140 -5 19 -16 64 -24 100 -8 36 -31 133 -51 215 -20 83 -43 179 -51
215 -17 76 -23 101 -64 275 -34 142 -44 185 -90 380 -17 72 -40 168 -51 215
-11 47 -28 121 -39 165 -11 44 -28 118 -39 165 -11 47 -34 144 -51 215 -41
171 -52 218 -100 425 -23 96 -52 220 -65 275 -14 55 -36 150 -50 210 -14 61
-27 120 -30 133 l-5 22 -745 0 c-699 0 -744 -1 -749 -17z m779 -988 c22 -125
111 -585 124 -645 6 -25 29 -142 51 -260 23 -118 50 -259 61 -312 10 -53 19
-102 19 -107 0 -8 -92 -11 -286 -11 l-286 0 7 28 c4 15 11 51 15 80 5 29 18
96 29 150 11 53 45 228 76 387 30 160 60 308 65 330 5 22 28 138 51 258 24
119 46 214 49 210 4 -5 15 -53 25 -108z"/>
<path d="M6192 4848 l3 -493 368 -3 367 -2 0 -1689 0 -1689 352 -293 c193
-162 391 -327 439 -366 l88 -73 155 0 156 0 2 2052 3 2053 373 3 372 2 0 495
0 495 -1340 0 -1340 0 2 -492z"/>
<path d="M4709 2332 c-52 -42 -140 -113 -195 -158 -54 -44 -182 -147 -284
-229 -299 -241 -749 -604 -830 -670 -183 -149 -913 -738 -1122 -905 -86 -69
-157 -128 -157 -132 -1 -5 1185 -8 2634 -8 1680 0 2635 3 2635 10 0 5 -192
170 -427 367 -377 314 -615 514 -1249 1044 -88 74 -213 179 -278 234 -65 55
-135 114 -156 130 -81 64 -450 376 -455 385 -10 16 -16 13 -116 -68z"/>
</g>
</svg>
