<?xml version="1.0" encoding="UTF-8"?>
<svg id="icono" xmlns="http://www.w3.org/2000/svg" viewBox="0 0 753.33 476.85">
  <defs>
    <style>
      .cls-1 {
        fill: #29abe2;
      }

      .cls-1, .cls-2 {
        stroke-width: 0px;
      }

      .cls-2 {
        fill: #101c42;
      }
    </style>
  </defs>
  <g>
    <path class="cls-2" d="m708.22,303.78v-12.49h-97.46l14.76-15.18c11.06-11.34,10.82-29.6-.56-40.59l-49.07-47.76c-11.33-11.09-29.51-10.83-40.59.55l-14.83,15.26c-4.75,4.87-10.74,7.96-17.08,9.13v-18.02l30.78-30.78v-59.01l14.2-8.2v-25.83l-22.37-12.91-22.37,12.91v25.83l18.04,10.42v51.62l-30.78,30.78v22.99c-2.3-.5-4.57-1.24-6.76-2.27-7.95-3.73-16.16-7.07-24.54-10.02v-63.46l30.78-30.78v-57.57l16.71-9.64V12.91l-22.37-12.91-22.37,12.91v25.83l15.54,8.97v53.07l-30.78,30.78v62.89c-8.03-5.77-13.08-15.12-13.21-25.39l-.3-21.26c-.22-15.88-13.2-28.55-29.1-28.33l-36.2.48v154.82h-.47v115.34l-16.12,9.31v25.83l22.37,12.91,22.37-12.91v-25.83l-16.13-9.31v-102.21c1.62.05,3.23.08,4.86.18,6.97.45,13.84,1.38,20.55,2.75v41.81l-16.13,9.31v25.83l22.37,12.91,22.37-12.91v-25.83l-16.12-9.31v-38.7c10.07,2.95,19.73,6.91,28.88,11.76v121.97l-18.08,10.44v25.83l22.37,12.91,22.37-12.91v-25.83l-14.16-8.18v-116.85c38.74,25.36,65.81,67.5,70.27,115.83,1.53,16.56.41,32.66-2.91,47.95h171.72c.11-1.1.18-2.22.17-3.35l-.94-68.46c-.2-15.86-13.25-28.56-29.11-28.34l-21.29.27c-13.54.2-25.76-8.19-30.34-20.93-.83-2.3-1.7-4.59-2.6-6.86h39.16v-12.49h-44.51c-1.36-2.98-2.76-5.93-4.22-8.84-3.85-7.63-4.33-16.27-1.8-24.06h105.04Zm-194.6-212.87v-14.29l12.38-7.15,12.37,7.15v14.29l-12.37,7.15-12.38-7.15Zm-41.3-57.94v-14.29l12.37-7.15,12.38,7.15v14.29l-12.38,7.15-12.37-7.15Zm-85.88,372.22v14.29l-12.38,7.15-12.37-7.15v-14.29l12.37-7.15,12.38,7.15Zm37.9-57.47v14.29l-12.37,7.15-12.38-7.15v-14.29l12.38-7.15,12.37,7.15Zm39.42,96.16v14.29l-12.38,7.15-12.37-7.15v-14.29l12.37-7.15,12.38,7.15Z"/>
    <path class="cls-1" d="m740.42,319.91h-25.83l-12.91-22.37,12.91-22.37h25.83l12.91,22.37-12.91,22.37Z"/>
    <path class="cls-1" d="m685.91,365.3h-25.83l-12.91-22.37,12.91-22.37h25.83l12.91,22.37-12.91,22.37Z"/>
  </g>
  <path class="cls-2" d="m97.74,476.85v-212.18s245.9-144.72,245.9-144.72v80.33s-172.93,102.41-172.93,102.41v104.25h99.96v-110.99s72.97-43.54,72.97-43.54v224.44s-245.9,0-245.9,0Z"/>
  <path class="cls-1" d="m0,212.19v264.65h72.97v-226.63l172.93-102.41v-80.33L0,212.19Z"/>
</svg>