<svg xmlns="http://www.w3.org/2000/svg" width="4149" height="947"><path d="M227.75 259.29 0 393.433V885h136l.044-210.25.045-210.25L296.003 370l159.915-94.5.041-75.25c.022-41.387-.072-75.217-.209-75.176-.137.041-102.738 60.438-228 134.216m1088.681 264.448c-4.362 7.556-9.087 15.994-10.499 18.75-1.413 2.757-3.201 6.013-3.975 7.236-1.6 2.532-.527 4.827 14.284 30.543l7.93 13.768 24.522-.268 24.523-.267 11.902-20.624 11.903-20.624-12.16-21.126-12.16-21.126h-48.338l-7.932 13.738m-101.21 84.512c-4.502 7.837-9.829 17.42-11.838 21.294l-3.653 7.045 6.716 12.313c3.695 6.772 8.952 16.097 11.684 20.723l4.968 8.41 24.564-.268 24.564-.267 11.82-20.453c6.502-11.249 11.701-20.699 11.554-21-.147-.301-5.618-9.884-12.158-21.297l-11.89-20.75H1223.407l-8.186 14.25M1786.5 729.423c-17.217 3.355-29.912 9.932-41.584 21.543-7.138 7.102-9.37 10.138-13.26 18.037-6.738 13.685-8.822 22.649-8.948 38.497-.115 14.255 1.518 23.773 5.959 34.74 6.373 15.74 19.445 29.776 34.744 37.306 14.391 7.083 22.198 8.766 41.089 8.858 18.033.087 25.756-1.483 39-7.927 7.334-3.569 20.309-12.816 21.185-15.098.397-1.035-19.12-24.379-20.382-24.379-.157 0-2.375 1.594-4.928 3.543s-6.005 4.248-7.671 5.11c-14.768 7.637-35.332 8.169-48.867 1.264-5.459-2.785-13.392-10.301-16.537-15.668-8.77-14.965-8.77-38.533 0-53.498 3.143-5.363 11.077-12.882 16.527-15.663 16.688-8.513 39.356-6.209 53.758 5.464l4.084 3.311 11.339-11.371c12.881-12.918 12.694-11.54 2.604-19.124-7.839-5.893-17.541-10.762-26.791-13.446-9.406-2.729-30.992-3.512-41.321-1.499m407 0c-17.217 3.355-29.912 9.932-41.584 21.543-7.138 7.102-9.37 10.138-13.26 18.037-6.738 13.685-8.822 22.649-8.948 38.497-.115 14.255 1.518 23.773 5.959 34.74 6.373 15.74 19.445 29.776 34.744 37.306 14.391 7.083 22.198 8.766 41.089 8.858 18.033.087 25.756-1.483 39-7.927 7.334-3.569 20.309-12.816 21.185-15.098.397-1.035-19.12-24.379-20.382-24.379-.157 0-2.375 1.594-4.928 3.543-9.13 6.97-18.35 10.345-30.375 11.121-14.546.939-25.916-2.764-35.226-11.472-9.694-9.068-13.909-19.884-13.909-35.692s4.215-26.624 13.909-35.692C2189.299 764.834 2199.6 761 2212.5 761c11.83 0 22.561 3.643 31.085 10.552l4.084 3.311 11.339-11.371c12.881-12.918 12.694-11.54 2.604-19.124-7.839-5.893-17.541-10.762-26.791-13.446-9.406-2.729-30.992-3.512-41.321-1.499m148.5.037c-24.942 5.355-43.676 19.072-53.994 39.533-11.209 22.229-11.476 54.113-.647 77.344 9.11 19.545 26.705 33.778 49.141 39.751 11.252 2.995 31.79 3.687 44.396 1.495 30.53-5.308 52.88-25.046 61.304-54.14 1.998-6.901 2.3-10.173 2.3-24.943 0-19.66-1.553-26.943-8.73-40.943-5.988-11.681-19.075-24.566-30.77-30.297-14.004-6.862-21.015-8.409-40-8.83-11.594-.257-18.433.05-23 1.03m339.5-.745c-12.322 1.704-26.559 7.835-34.251 14.751-9.771 8.785-14.249 19.01-14.249 32.534 0 25.849 16.438 40.099 52.5 45.512 26.213 3.935 33.119 6.175 36.594 11.875 5.486 8.995-1.32 18.853-14.978 21.696-8.205 1.707-25.968.629-34.616-2.101-7.856-2.48-15.022-5.895-21.075-10.044l-4.075-2.794-9.175 12.878c-5.046 7.082-9.175 13.274-9.175 13.758 0 1.595 8.851 7.277 18.255 11.718 16.304 7.7 34.436 11.172 53.245 10.194 27.255-1.417 46.434-11.657 55.247-29.499 3.72-7.529 3.753-7.703 3.715-19.645-.035-10.894-.294-12.6-2.704-17.816-7.463-16.158-25.484-25.728-56.837-30.187-23.369-3.323-30.921-7.486-30.921-17.046 0-3.715.555-4.988 3.43-7.862 5.289-5.29 11.97-7.143 25.57-7.093 13.283.048 19.489 1.557 31.036 7.547 4.145 2.15 7.794 3.909 8.11 3.909.315 0 4.328-5.667 8.916-12.593l8.342-12.594-2.452-1.884c-7.373-5.664-24.102-12.06-37.833-14.462-7.689-1.346-25.379-1.754-32.619-.752m617 .708c-17.217 3.355-29.912 9.932-41.584 21.543-7.138 7.102-9.37 10.138-13.26 18.037-6.738 13.685-8.822 22.649-8.948 38.497-.115 14.255 1.518 23.773 5.959 34.74 6.373 15.74 19.445 29.776 34.744 37.306 14.391 7.083 22.198 8.766 41.089 8.858 18.033.087 25.756-1.483 39-7.927 7.334-3.569 20.309-12.816 21.185-15.098.397-1.035-19.12-24.379-20.382-24.379-.157 0-2.375 1.594-4.928 3.543-9.13 6.97-18.35 10.345-30.375 11.121-14.546.939-25.916-2.764-35.226-11.472-9.694-9.068-13.909-19.884-13.909-35.692s4.215-26.624 13.909-35.692C3294.299 764.834 3304.6 761 3317.5 761c11.83 0 22.561 3.643 31.085 10.552l4.084 3.311 11.339-11.371c12.881-12.918 12.694-11.54 2.604-19.124-7.839-5.893-17.541-10.762-26.791-13.446-9.406-2.729-30.992-3.512-41.321-1.499m286.5.037c-24.942 5.355-43.676 19.072-53.994 39.533-11.209 22.229-11.476 54.113-.647 77.344 9.11 19.545 26.705 33.778 49.141 39.751 11.252 2.995 31.79 3.687 44.396 1.495 30.53-5.308 52.88-25.046 61.304-54.14 1.998-6.901 2.3-10.173 2.3-24.943 0-19.66-1.553-26.943-8.73-40.943-5.988-11.681-19.075-24.566-30.77-30.297-14.004-6.862-21.015-8.409-40-8.83-11.594-.257-18.433.05-23 1.03m473.5-.745c-12.322 1.704-26.559 7.835-34.251 14.751-9.771 8.785-14.249 19.01-14.249 32.534 0 25.849 16.438 40.099 52.5 45.512 26.213 3.935 33.119 6.175 36.594 11.875 5.486 8.995-1.32 18.853-14.978 21.696-8.205 1.707-25.968.629-34.616-2.101-7.856-2.48-15.022-5.895-21.075-10.044l-4.075-2.794-9.175 12.878c-5.046 7.082-9.175 13.274-9.175 13.758 0 1.595 8.851 7.277 18.255 11.718 16.304 7.7 34.436 11.172 53.245 10.194 27.255-1.417 46.434-11.657 55.247-29.499 3.72-7.529 3.753-7.703 3.715-19.645-.035-10.894-.294-12.6-2.704-17.816-7.463-16.158-25.484-25.728-56.837-30.187-23.369-3.323-30.921-7.486-30.921-17.046 0-3.715.555-4.988 3.43-7.862 5.289-5.29 11.97-7.143 25.57-7.093 13.283.048 19.489 1.557 31.036 7.547 4.145 2.15 7.794 3.909 8.11 3.909.315 0 4.328-5.667 8.916-12.593l8.342-12.594-2.452-1.884c-7.373-5.664-24.102-12.06-37.833-14.462-7.689-1.346-25.379-1.754-32.619-.752M1432 808v77h120v-31h-84v-32h78.053l-.276-14.75-.277-14.75-38.75-.262-38.75-.261V762h82v-31h-118v77m146-.083V885h37v-43l23.25-.017c26.672-.02 33.255-.991 44.608-6.578 8.562-4.214 17.25-12.371 21.414-20.106 3.887-7.222 6.731-19.177 6.711-28.209-.062-27.14-14.602-46.44-40.483-53.739-5.095-1.437-12.525-1.754-49.25-2.104l-43.25-.412v77.082m307 .083v77h36.98l.26-46.849.26-46.849 22 26.831c21.56 26.296 22.074 26.833 25.71 26.85 3.649.017 4.073-.427 25.5-26.661l21.79-26.677.26 46.677.26 46.678H2055V731H2022.377l-26.114 32.496-26.114 32.497-4.421-5.247c-2.432-2.885-14.212-17.509-26.178-32.496L1917.794 731H1885v77m583 0v77h37.223l-.367-46.455c-.202-25.551-.1-46.139.227-45.75.326.388 15.624 21.292 33.995 46.455L2572.48 885H2606V731h-37.17l.335 47.019c.28 39.295.116 46.729-.995 45.25-.732-.973-16.183-22.131-34.337-47.019L2500.827 731H2468v77m300-60.5V764h47v121h36V764h47v-33h-130v16.5m149 60.418V885h37v-50.07l10.17.285 10.17.285 19.08 24.745 19.08 24.745 21.8.005c17.941.004 21.658-.232 21-1.334-.44-.736-9.8-12.455-20.8-26.042-11-13.586-20.099-25.022-20.221-25.411-.121-.389 2.625-1.979 6.101-3.531 16.052-7.169 25.963-22.136 27.269-41.177 1.787-26.057-12.606-46.749-37.694-54.191-4.551-1.35-12.707-1.689-49.205-2.045l-43.75-.428v77.082m157.241-24.191c.377 58.765.275 57.779 7.499 72.208 4.881 9.751 14.263 19.288 23.96 24.357 22.644 11.838 57.934 11.181 78.998-1.471 7.4-4.445 17.243-15.227 21.154-23.172 1.751-3.556 4.155-9.994 5.343-14.307 2.077-7.542 2.162-9.793 2.232-58.842l.073-51-18.25-.273-18.25-.272-.006 45.272c-.003 24.9-.435 47.892-.959 51.094-1.982 12.103-8.146 21.096-17.677 25.787-4.097 2.017-6.346 2.39-14.358 2.381-11.866-.014-17.945-2.41-24.437-9.631-8.121-9.032-7.96-7.819-8.545-64.358l-.518-50-18.299-.273-18.299-.272.339 52.772M3384 747.5V764h47v121h36V764h47v-33h-130v16.5m327 60.418V885h37v-50.07l10.17.285 10.17.285 19.08 24.745 19.08 24.745 21.8.005c17.941.004 21.658-.232 21-1.334-.44-.736-9.8-12.455-20.8-26.042-11-13.586-20.099-25.022-20.221-25.411-.121-.389 2.625-1.979 6.101-3.531 16.052-7.169 25.963-22.136 27.269-41.177 1.787-26.057-12.606-46.749-37.694-54.191-4.551-1.35-12.707-1.689-49.205-2.045l-43.75-.428v77.082m159 .082v77h120v-31h-84v-32h78.053l-.276-14.75-.277-14.75-38.75-.262-38.75-.261V762h82v-31h-118v77m-1523.5-44.936c-19.111 6.742-29.63 22.872-29.63 45.436 0 29.17 17.624 47.447 45.791 47.488 13.796.02 24.903-4.538 33.531-13.762 8.362-8.939 11.808-18.783 11.808-33.726 0-20.999-8.315-35.456-24.942-43.365-6.976-3.318-8.166-3.56-19-3.864-9.766-.274-12.488.004-17.558 1.793m1243 0c-19.111 6.742-29.63 22.872-29.63 45.436 0 29.17 17.624 47.447 45.791 47.488 13.796.02 24.903-4.538 33.531-13.762 8.362-8.939 11.808-18.783 11.808-33.726 0-20.999-8.315-35.456-24.942-43.365-6.976-3.318-8.166-3.56-19-3.864-9.766-.274-12.488.004-17.558 1.793M2954 783.999v21.141l21.75-.32c21.637-.318 21.774-.334 26.404-3.056 6.701-3.939 9.182-9.431 8.688-19.228-.326-6.446-.761-7.868-3.411-11.142-5.87-7.253-8.22-7.853-32.181-8.215l-21.25-.321v21.141m794 0v21.141l21.75-.32c21.637-.318 21.774-.334 26.404-3.056 6.701-3.939 9.182-9.431 8.688-19.228-.326-6.446-.761-7.868-3.411-11.142-5.87-7.253-8.22-7.853-32.181-8.215l-21.25-.321v21.141M1615 787v23.169l21.75-.344c19.951-.315 22.081-.52 25.75-2.487 7.979-4.276 11.5-10.503 11.5-20.338s-3.521-16.062-11.5-20.338c-3.669-1.967-5.799-2.172-25.75-2.487l-21.75-.344V787" fill="#2babe3" fill-rule="evenodd"/><path d="M877.239 12.307 856.022 24.5l-.011 24.056L856 72.613 870.5 81l14.5 8.387v98.126L856.5 216 828 244.487l-.033 58.006-.034 58.007-6.449-6.741c-7.316-7.647-12.794-17.566-14.921-27.016-.889-3.95-1.635-15.792-2.031-32.243-.345-14.3-1.105-28.25-1.689-31-3.961-18.653-19.778-35.122-38.385-39.969-4.734-1.233-12.602-1.529-40.418-1.52-18.997.006-36.227.29-38.29.631l-3.75.62v89.703c0 49.337-.299 161.98-.665 250.32l-.666 160.616-14.584 8.385-14.585 8.386v48.716l20.5 11.806C683.275 807.687 692.908 813 693.407 813c.5 0 10.062-5.276 21.25-11.724L735 789.552v-49.104l-14.75-8.474-14.75-8.474-.255-94.25-.255-94.25 5.255.031c5.909.035 24.78 2.183 35.005 3.985l6.75 1.189v76.501l-14.75 8.519-14.75 8.519V683.231l20.588 11.89 20.588 11.889 21.162-12.222L806 682.565v-48.128l-14.75-8.527-14.75-8.527-.263-35.191c-.224-30.007-.051-35.192 1.171-35.192 3.452 0 24.643 8.168 40.842 15.743l9.75 4.559-.033 113.099-.033 113.099-16.484 9.363-16.484 9.363.267 24.621.267 24.621 17 9.834c9.35 5.408 18.629 10.753 20.619 11.876l3.619 2.043 21.131-12.192L879 860.836l-.014-24.168-.015-24.168-13.112-7.499c-7.212-4.125-13.284-7.95-13.494-8.5-.209-.551-.264-49.066-.123-107.813l.258-106.811 8.141 5.811c37.984 27.116 70.379 64.722 91.471 106.184 27.273 53.613 36.872 116.7 26.799 176.128-1.072 6.325-2.196 12.288-2.497 13.25-.521 1.662 7.531 1.75 159.519 1.75H1296l-.007-3.25c-.073-35.665-2.291-136.629-3.091-140.75-2.701-13.896-13.962-29.107-26.402-35.661-11.537-6.079-14.485-6.488-48.297-6.704-28.429-.181-31.112-.35-36.225-2.283-19.797-7.483-32.03-19.978-39.014-39.848-.967-2.752-2.078-5.792-2.468-6.754-.668-1.646 1.265-1.75 32.436-1.75h33.146l-3.23-5.831-3.23-5.831 3.191-5.654c1.755-3.109 3.191-5.886 3.191-6.169 0-.283-17.227-.515-38.281-.515h-38.281l-5.255-11.291c-2.889-6.21-5.907-13.748-6.707-16.75-1.746-6.561-1.9-18.517-.338-26.292l1.138-5.667h188.915l-3.096-5.485c-1.702-3.017-3.095-5.935-3.095-6.485 0-.55 1.35-3.194 3-5.876 1.65-2.681 3-5.163 3-5.515 0-.351-39.028-.639-86.729-.639h-86.729l8.53-8.75c19.916-20.43 24.08-25.362 27.505-32.581 8.107-17.081 6.953-36.429-3.116-52.266-3.962-6.232-99.176-99.306-106.962-104.558-15.08-10.172-35.122-11.385-52.499-3.177-6.785 3.205-9.395 5.443-27.38 23.478-10.933 10.965-21.859 21.298-24.278 22.963-5.06 3.481-13.367 7.311-18.092 8.341l-3.25.709v-32.672L962.5 333l28.5-28.487V195.242l12.978-7.371 12.978-7.371-.015-24.5-.016-24.5-20.079-11.5c-11.044-6.325-20.837-11.5-21.764-11.5-.926 0-10.76 5.175-21.853 11.5l-20.17 11.5.001 24.5.001 24.5 16.469 9.376 16.47 9.376v96.261L937.5 324 909 352.487v41.352l-3.445-.951c-1.895-.524-6.957-2.571-11.25-4.551s-15.455-6.664-24.805-10.41l-17-6.809-.258-58.295-.258-58.294 28.5-28.514 28.5-28.515.258-53.351.258-53.351 15-8.699 15-8.7V23.788L924 14.832c-8.525-4.926-17.76-10.253-20.522-11.837L898.456.114l-21.217 12.193m9.547 16.995L876.072 35.5l-.036 13.046L876 61.592l10.878 6.204C892.861 71.208 898.094 74 898.505 74c.412 0 5.634-2.812 11.605-6.25l10.856-6.25v-26l-10.714-6c-5.893-3.3-11.173-6.089-11.733-6.198-.561-.109-5.84 2.591-11.733 6M964 136.414l-10.5 6.216v26.738l10.75 6.28 10.75 6.281 10.75-6.281 10.75-6.28v-26.736l-10.811-6.316c-5.946-3.474-10.896-6.271-11-6.217-.104.055-4.914 2.896-10.689 6.315m2045.39 3.58c-56.536 3.948-99.651 20.581-128.733 49.663-24.4 24.4-36.796 53.553-39.66 93.268-1.303 18.062-1.283 232.358.022 250.47 2.977 41.286 16.338 72.191 42.413 98.105 24.922 24.769 56.273 39.061 95.568 43.567 11.894 1.364 51.359.71 64.5-1.069 29.791-4.033 55.992-12.377 74.869-23.846l6.558-3.983 7.145 8.415 7.144 8.416H3226V389h-204v117h37.169l-.352 16.75c-.315 15.005-.597 17.298-2.711 22.007-1.297 2.892-3.879 6.592-5.737 8.224-4.649 4.082-13.167 6.435-20.282 5.602-10.681-1.25-16.948-5.962-20.817-15.652-1.662-4.16-1.77-12.452-1.77-135.431v-131l2.392-5.294c4.609-10.201 13.285-14.891 25.879-13.99 10.274.735 16.459 4.868 20.626 13.784 2.025 4.333 2.114 6.184 2.4 49.75l.298 45.25H3226v-39.394c0-50.959-1.239-63.371-8.51-85.266-18.724-56.382-68.768-90.905-144.639-99.78-16.022-1.874-47.815-2.658-63.461-1.566M1441 408v256h167V152h-167v256m217 0v256h166.989l.255-84.606.256-84.606 35.145 84.356 35.145 84.356 73.605.256 73.605.257V152h-165.989l-.255 85.02-.256 85.02-35.409-85.02-35.41-85.02H1658v256m407-197v59h116v393h167V270.016l58.25-.258 58.25-.258.258-58.75.258-58.75H2065v59m421 196.5V663h323V546h-156v-79h116V349h-116v-79h156V152h-323v255.5m787 0V663h167V513l16.25.022c14.19.019 16.821.281 20.75 2.062 8.597 3.898 12.363 9.453 13.978 20.622.555 3.84.991 32.994 1.002 67.044L3492 663h166.108l-.377-64.25c-.332-56.693-.581-65.132-2.12-71.75-4.779-20.557-11.885-34.822-23.523-47.225-7.88-8.398-21.416-18.062-30.67-21.897-2.98-1.236-5.416-2.501-5.414-2.812.002-.311 3.72-2.026 8.263-3.811 12.931-5.079 20.476-9.99 30.338-19.747 7.745-7.662 9.8-10.427 13.76-18.508 9.082-18.534 9.002-17.86 9.418-80 .388-58.056-.025-65.957-4.32-82.524-5.2-20.06-13.72-35.439-27.782-50.148-26.774-28.007-67.955-43.028-129.681-47.304-8.262-.572-59.35-1.008-118.75-1.014L3273 152v255.5m542.485-254.25C3814.86 154.976 3672 663.105 3672 663.601c0 .219 40.02.399 88.933.399 83.84 0 88.961-.1 89.434-1.75.276-.962 2.857-12.442 5.736-25.509l5.235-23.76 48.996.26 48.996.259 5.585 25 5.585 25 88.75.255c75.87.219 88.75.051 88.75-1.156 0-.776-31.678-114.066-70.395-251.755-38.718-137.689-70.91-252.256-71.539-254.594l-1.143-4.25h-94.493c-74.686 0-94.588.262-94.945 1.25M408.5 356.815 181.5 490.5l-.252 197.25-.253 197.25H638V676.393c0-166.486-.252-208.506-1.25-208.106-.687.276-31.4 18.501-68.25 40.501l-67 39.999-.255 103.106L500.991 755H316.99l.255-96.582.255-96.582 160-94.755 160-94.755.256-74.663c.204-59.429 0-74.65-1-74.598-.691.036-103.406 60.224-228.256 133.75M3440 332.5V395h15.634c17.27 0 21.481-.822 26.839-5.238 8.423-6.943 9.487-13.366 9.487-57.262 0-42.873-1.002-49.468-8.618-56.697-5.325-5.053-8.788-5.803-26.81-5.803H3440v62.5m469.617 59.5c-.346 1.375-5.349 24.325-11.117 51-5.768 26.675-10.724 49.512-11.013 50.75l-.525 2.25h23.019c18.892 0 23.019-.247 23.019-1.378 0-1.288-21.664-101.938-22.411-104.122-.188-.55-.626.125-.972 1.5M751.782 639.3l-10.718 6.2-.002 13-.003 13 10.571 6c5.814 3.3 10.971 6.148 11.46 6.33.489.181 5.836-2.519 11.882-6l10.994-6.33.009-13 .009-13-10.832-6.25c-5.958-3.437-11.242-6.227-11.742-6.2-.501.028-5.733 2.84-11.628 6.25m-69.564 106.337L671 752.168v25.744l7.25 4.191c3.987 2.305 9.05 5.211 11.25 6.458l4 2.265 11.25-6.497 11.25-6.498v-25.656l-8.25-4.71c-4.538-2.591-9.615-5.532-11.282-6.535l-3.033-1.824-11.217 6.531m143.277 71.751-10.995 6.391-.264 12.861-.264 12.86 10.989 6.328c6.044 3.481 11.563 6.181 12.264 6 .701-.18 5.887-2.963 11.525-6.183l10.25-5.856-.017-13.144-.017-13.145-10.689-6c-5.879-3.3-10.937-6.113-11.238-6.252-.302-.138-5.496 2.625-11.544 6.14" fill="#141c44" fill-rule="evenodd"/></svg>