<?xml version="1.0" encoding="UTF-8"?>
<svg version="1.1" xmlns="http://www.w3.org/2000/svg" width="1398" height="544" fill="000000">
<path d="M0 0 C461.34 0 922.68 0 1398 0 C1398 179.52 1398 359.04 1398 544 C936.66 544 475.32 544 0 544 C0 364.48 0 184.96 0 0 Z " fill="#000000" transform="translate(0,0)"/>
<path d="M0 0 C0.79067871 -0.0065712 1.58135742 -0.0131424 2.39599609 -0.01991272 C5.02571715 -0.03969223 7.65538046 -0.05132959 10.28515625 -0.0612793 C11.18759064 -0.06535482 12.09002502 -0.06943035 13.01980591 -0.07362938 C17.81268078 -0.09452747 22.60552687 -0.10880296 27.3984375 -0.11816406 C32.30456651 -0.12912961 37.21022944 -0.16340211 42.11619568 -0.20333576 C45.92228919 -0.22976613 49.72827719 -0.23787987 53.53445435 -0.24144554 C55.33939701 -0.24625777 57.14433674 -0.25771423 58.94918823 -0.27648354 C75.57704677 -0.43840317 91.29753392 1.6629908 106.34765625 9.17700195 C107.19457031 9.5946582 108.04148437 10.01231445 108.9140625 10.44262695 C122.85556032 18.03517976 131.98068084 30.33806747 136.7265625 45.2824707 C141.18179114 61.02832209 139.95552684 76.41404355 136.34765625 92.17700195 C137.30285156 91.91145508 138.25804687 91.6459082 139.2421875 91.37231445 C140.54811039 91.01529956 141.85410388 90.65854287 143.16015625 90.30200195 C144.42472656 89.95395508 145.68929687 89.6059082 146.9921875 89.24731445 C157.12274899 86.6825706 166.70364874 85.83808329 177.16015625 85.86450195 C178.42408203 85.84838867 179.68800781 85.83227539 180.99023438 85.81567383 C194.55888869 85.80872623 208.68692408 87.47455539 219.21875 96.84106445 C228.58768653 107.07446645 230.6730973 120.55919331 231.47265625 133.92700195 C231.5504834 135.11092529 231.62831055 136.29484863 231.70849609 137.51464844 C231.93569054 141.06807439 232.14420195 144.62214664 232.34765625 148.17700195 C232.40695312 149.14718262 232.46625 150.11736328 232.52734375 151.11694336 C232.92819655 157.8014024 233.18249601 164.4826999 233.34765625 171.17700195 C233.37276276 172.16552155 233.37276276 172.16552155 233.39837646 173.17401123 C233.50855923 177.66784794 233.5860628 182.16102745 233.63275146 186.65597534 C233.65076029 188.14836164 233.67534206 189.64068582 233.70709229 191.13284302 C233.88169005 199.81398609 233.95409926 208.48242444 229.34765625 216.17700195 C226.34765625 217.17700195 226.34765625 217.17700195 223.96264648 216.10058594 C223.03653564 215.54701416 222.1104248 214.99344238 221.15625 214.4230957 C220.12822266 213.81530273 219.10019531 213.20750977 218.04101562 212.58129883 C216.96658203 211.93225586 215.89214844 211.28321289 214.78515625 210.61450195 C213.73779297 209.9925293 212.69042969 209.37055664 211.61132812 208.72973633 C207.54326891 206.31013865 203.48726174 203.87173369 199.44580078 201.40795898 C198.55876465 200.86896973 197.67172852 200.32998047 196.7578125 199.7746582 C195.97672119 199.29649658 195.19562988 198.81833496 194.39086914 198.32568359 C192.25884948 197.04225645 192.25884948 197.04225645 189.34765625 196.17700195 C189.06664062 196.76868164 188.785625 197.36036133 188.49609375 197.9699707 C183.56245723 207.45127899 174.0972153 212.88798735 164.16015625 216.11450195 C151.72341401 219.01640848 138.28158773 218.28484668 127.09765625 211.92700195 C119.91420497 207.04631025 115.41432359 200.63994698 113.34765625 192.17700195 C111.99487806 181.3927048 114.0148188 172.76500299 119.96875 163.7121582 C131.28490049 149.47571081 150.32358737 144.80827369 167.47265625 142.36450195 C168.34212891 142.24034912 169.21160156 142.11619629 170.10742188 141.98828125 C177.52399283 141.05292629 184.88109177 141.06069821 192.34765625 141.17700195 C192.25295812 137.22970665 192.14663389 133.28289917 192.03027344 129.33618164 C191.97389626 127.34578065 191.92630232 125.35513705 191.87890625 123.36450195 C191.6942945 110.9205728 191.6942945 110.9205728 187.78515625 99.30200195 C181.73629493 94.02863567 175.46192493 92.49181406 167.51953125 92.79418945 C150.14417219 94.89121555 134.28016575 104.67955312 122.47265625 117.23950195 C106.66334298 133.50339612 81.87714325 138.46545671 59.95629883 139.26412964 C57.58348706 139.29108208 55.21275175 139.2899393 52.83984375 139.2746582 C51.98834747 139.27324326 51.1368512 139.27182831 50.259552 139.27037048 C47.58054866 139.26484114 44.90163368 139.25230269 42.22265625 139.23950195 C40.38932414 139.23447779 38.55599069 139.2299165 36.72265625 139.22583008 C32.26428966 139.21489502 27.80598786 139.19768067 23.34765625 139.17700195 C23.38524048 140.48981392 23.38524048 140.48981392 23.42358398 141.82914734 C23.66314518 150.22292206 23.898639 158.61680006 24.12995911 167.01080608 C24.24891368 171.32253392 24.36924989 175.6342124 24.49316406 179.94580078 C24.82023698 191.3553577 25.11393452 202.76512687 25.34765625 214.17700195 C25.36310486 214.91253548 25.37855347 215.648069 25.39447021 216.40589142 C25.49095972 221.12777189 25.55337992 225.84887128 25.59765625 230.5715332 C25.61900635 231.72779709 25.64035645 232.88406097 25.66235352 234.07536316 C25.69146537 241.14547515 25.48784914 247.94875393 21.12631226 253.8215332 C17.65189957 257.24037393 14.4611913 257.74641863 9.8425293 257.74279785 C9.05273682 257.71721802 8.26294434 257.69163818 7.44921875 257.6652832 C6.70824951 257.6602478 5.96728027 257.6552124 5.20385742 257.65002441 C2.45915391 257.62403556 -0.28326231 257.55443069 -3.02734375 257.48950195 C-6.34970579 257.4296838 -9.67216706 257.37621358 -12.99462891 257.32226562 C-14.64523483 257.294671 -16.29583921 257.26698392 -17.94644165 257.23918152 C-19.16938934 257.21866226 -20.39233704 257.19814301 -21.65234375 257.17700195 C-21.77723756 229.66728797 -21.47955735 202.18766757 -20.84482956 174.68547058 C-20.7525672 170.65792744 -20.66361403 166.63031357 -20.5746069 162.60269737 C-20.29918239 150.14468779 -20.01308454 137.68693758 -19.72325897 125.22925568 C-19.65314522 122.21149812 -19.58337923 119.19373273 -19.51373291 116.17596436 C-19.23178296 103.96494686 -18.94509984 91.75405067 -18.65242767 79.54328537 C-18.59079533 76.96678208 -18.52964391 74.39026773 -18.46856689 71.81375122 C-18.23369336 61.94253305 -17.98431992 52.0718509 -17.70839691 42.20169067 C-17.65297855 40.19993155 -17.59982211 38.19811022 -17.54669189 36.19628906 C-17.44735417 32.56968098 -17.33547135 28.94371194 -17.21875 25.31762695 C-17.19143295 24.27676941 -17.16411591 23.23591187 -17.13597107 22.16351318 C-16.83070681 13.50671134 -15.74346594 7.57268025 -9.65234375 1.17700195 C-6.58519818 -0.35657083 -3.36663356 0.01207019 0 0 Z " fill="#FEFCFC" transform="translate(314.65234375,112.822998046875)"/>
<path d="M0 0 C1.00740234 -0.00773438 2.01480469 -0.01546875 3.05273438 -0.0234375 C12.80517997 0.00164918 21.95224351 1.41754847 31.0625 4.9375 C31.74256104 5.19877686 32.42262207 5.46005371 33.12329102 5.72924805 C48.92753319 12.03713883 60.56077983 23.04929413 67.5703125 38.59375 C74.58294503 56.06522304 74.36181905 75.92169965 67.0625 93.25 C63.82834545 100.7814395 58.77419486 106.44166056 53.0625 112.25 C52.43472656 112.89066406 51.80695313 113.53132813 51.16015625 114.19140625 C43.43935728 121.48780613 33.33937512 126.64872323 23.0625 129.25 C21.96228516 129.55550781 21.96228516 129.55550781 20.83984375 129.8671875 C-0.27655421 134.75307356 -22.63211264 131.03954822 -41.25 120.3125 C-53.80145568 112.37790143 -62.21139676 101.39124224 -66.9375 87.25 C-67.25589844 86.31800781 -67.57429688 85.38601563 -67.90234375 84.42578125 C-72.92342515 67.46516989 -70.37726374 48.52127724 -62.32080078 32.96435547 C-53.63465007 17.27212322 -38.96916468 7.22756397 -21.9375 2.25 C-14.58935032 0.36904364 -7.56477656 -0.0578568 0 0 Z " fill="#FEFCFC" transform="translate(1248.9375,198.75)"/>
<path d="M0 0 C0.71803802 -0.00100708 1.43607605 -0.00201416 2.1758728 -0.00305176 C12.58908887 0.00685047 22.49299041 0.33908718 32.5625 3.25 C33.62210938 3.54003906 34.68171875 3.83007812 35.7734375 4.12890625 C41.78251084 6.01364185 45.15272964 7.90802643 48.5625 13.25 C50.92181601 20.32794804 49.88436615 27.13183508 46.8984375 33.85546875 C43.36269722 40.19292135 38.61655395 45.33294506 31.75 47.9375 C25.18239477 48.87572932 20.41989672 48.56550758 14.5625 45.25 C8.75043412 39.70211893 6.49256952 33.16375857 6.125 25.1875 C6.30379684 19.44812151 8.23546098 14.69922246 12.19921875 10.52734375 C12.64910156 10.10582031 13.09898437 9.68429688 13.5625 9.25 C5.59634192 5.87041779 -2.24644187 4.57054002 -10.625 7.28125 C-19.651258 11.3430661 -24.75205026 17.04459258 -28.75 26 C-33.25253031 38.60323656 -32.80697898 52.00905858 -33.4375 65.25 C-7.0375 65.25 19.3625 65.25 46.5625 65.25 C46.8925 77.109375 47.2225 88.96875 47.5625 101.1875 C47.66691406 104.85480225 47.77132812 108.52210449 47.87890625 112.30053711 C48.14620424 121.94956747 48.37645528 131.5990514 48.5625 141.25 C48.57794861 142.04840553 48.59339722 142.84681107 48.60931396 143.66941071 C48.69483942 148.27832668 48.75885087 152.88678537 48.79367065 157.49637032 C48.80600205 158.89297496 48.82332978 160.28954653 48.84622192 161.68601799 C48.99150858 171.01872636 48.96352383 179.56587775 43.31567383 187.34448242 C39.80803034 189.77218105 37.75313138 189.82852407 33.51171875 189.73828125 C32.85291214 189.73120651 32.19410553 189.72413177 31.51533508 189.71684265 C29.42569966 189.68900979 27.33881524 189.62630819 25.25 189.5625 C23.82751286 189.53740205 22.40498341 189.51459148 20.98242188 189.49414062 C17.50823139 189.43922446 14.0356345 189.35303685 10.5625 189.25 C10.280252 161.43554493 10.71604153 133.6746788 11.5625 105.875 C11.59837345 104.69643118 11.59837345 104.69643118 11.63497162 103.49405289 C11.9327446 93.74566239 12.24209768 83.99767382 12.5625 74.25 C11.7054245 74.30993134 10.848349 74.36986267 9.96530151 74.43161011 C6.73953856 74.65583191 3.51361463 74.8775386 0.28756714 75.09762573 C-1.10007394 75.19279238 -2.48764965 75.28891785 -3.87515259 75.38607788 C-13.74594349 76.07641457 -23.5419856 76.53453556 -33.4375 76.25 C-33.2065564 77.81210205 -33.2065564 77.81210205 -32.97094727 79.40576172 C-32.21314887 85.50200675 -32.09285418 91.6225463 -31.90234375 97.7578125 C-31.85936661 99.07369354 -31.81638947 100.38957458 -31.77210999 101.74533081 C-31.68144327 104.5375045 -31.59355951 107.32974885 -31.50756836 110.12207031 C-31.42123977 112.91810849 -31.33117942 115.71397889 -31.23706055 118.50976562 C-30.91484298 128.088696 -30.6390958 137.66772679 -30.4375 147.25 C-30.42270851 147.94761948 -30.40791702 148.64523895 -30.39267731 149.36399841 C-30.29475651 154.17754204 -30.23509428 158.99034402 -30.19140625 163.8046875 C-30.16980942 165.04139191 -30.14821259 166.27809631 -30.1259613 167.55227661 C-30.09399692 175.3489412 -30.25348558 181.60886926 -35.60229492 187.72558594 C-39.3552097 189.743428 -42.65061522 189.75311867 -46.80078125 189.640625 C-47.98875557 189.63213531 -47.98875557 189.63213531 -49.20072937 189.62347412 C-51.71778094 189.60117308 -54.23338243 189.55099139 -56.75 189.5 C-58.46156791 189.47992675 -60.17315824 189.46167742 -61.88476562 189.4453125 C-66.06956485 189.40132925 -70.253287 189.33234769 -74.4375 189.25 C-74.6178022 166.54249821 -74.11897626 143.87148904 -73.51037598 121.17376709 C-73.38695641 116.53974472 -73.26791251 111.90560982 -73.1484375 107.27148438 C-72.9156021 98.26421014 -72.67773139 89.25708001 -72.4375 80.25 C-77.0575 80.25 -81.6775 80.25 -86.4375 80.25 C-88.02205205 75.39730934 -88.74796812 71.4244687 -88.4375 66.25 C-87.4375 65.25 -87.4375 65.25 -83.83984375 65.15234375 C-82.35153133 65.1590178 -80.86323568 65.17097817 -79.375 65.1875 C-78.61638672 65.19201172 -77.85777344 65.19652344 -77.07617188 65.20117188 C-75.19658129 65.2129932 -73.31703101 65.23092922 -71.4375 65.25 C-71.48970703 64.41082031 -71.48970703 64.41082031 -71.54296875 63.5546875 C-72.08396878 47.53078175 -66.80594099 32.57148818 -56 20.75 C-40.21835979 4.23047521 -22.24288961 0.02151058 0 0 Z " fill="#FEFCFC" transform="translate(920.4375,136.75)"/>
<path d="M0 0 C0 55.77 0 111.54 0 169 C27.83406238 166.98723385 27.83406238 166.98723385 53.953125 159.98828125 C57 159 57 159 60 159 C59.73127784 165.67774578 59.16059924 170.63501677 55 176 C49.55467836 178.94491583 45.15399498 179.42234831 39.03540039 179.34057617 C38.16631042 179.34101425 37.29722046 179.34145233 36.40179443 179.34190369 C33.55018063 179.33982593 30.69916641 179.31654296 27.84765625 179.29296875 C25.86226218 179.28736919 23.87686394 179.28310079 21.89146423 179.28010559 C16.68163484 179.26868519 11.47205882 179.23924215 6.2623291 179.20599365 C0.93989488 179.17523224 -4.38258052 179.16158729 -9.70507812 179.14648438 C-20.13682969 179.11436976 -30.56839372 179.06320738 -41 179 C-41.08721797 148.9214932 -41.08721797 148.9214932 -40.62988281 135.17520142 C-40.09730168 118.97079335 -39.83197914 102.76225817 -39.59299469 86.55142021 C-39.52164624 81.71846737 -39.44650835 76.88558664 -39.36865234 72.05273438 C-39.35240562 71.043203 -39.35240562 71.043203 -39.33583069 70.01327705 C-39.28216662 66.68534964 -39.22812704 63.35742863 -39.17388916 60.0295105 C-39.06660721 53.39179596 -38.96971734 46.75417351 -38.88998413 40.11607361 C-38.84699772 36.84334861 -38.78897547 33.57105359 -38.72509766 30.29867554 C-38.70050305 28.87676015 -38.68249457 27.45471172 -38.671875 26.03262329 C-38.55613507 11.21678244 -38.55613507 11.21678244 -34 5 C-28 0 -28 0 0 0 Z " fill="#FEFCFC" transform="translate(188,148)"/>
<path d="M0 0 C40.09086022 0 40.09086022 0 54.08984375 12.94140625 C68.75924169 28.7507574 69.60698762 48.60137031 69.13623047 68.93457031 C68.41470574 85.17016967 61.99463955 99.58178448 50.25 110.75 C35.72407171 122.85962301 18.3441419 121 0 121 C0 81.07 0 41.14 0 0 Z " fill="#000000" transform="translate(338,122)"/>
<path d="M0 0 C3.32631879 1.56653225 5.16047733 2.72958011 7 6 C7.34057617 8.84082031 7.34057617 8.84082031 7.29296875 12.078125 C7.2784668 13.81835938 7.2784668 13.81835938 7.26367188 15.59375 C7.23853516 16.8003125 7.21339844 18.006875 7.1875 19.25 C7.16719727 21.08304688 7.16719727 21.08304688 7.14648438 22.953125 C7.1111398 25.96919498 7.0617956 28.98437487 7 32 C7.63091553 31.99476318 8.26183105 31.98952637 8.91186523 31.98413086 C11.75373347 31.96342174 14.59558588 31.95035934 17.4375 31.9375 C18.92733398 31.92493164 18.92733398 31.92493164 20.44726562 31.91210938 C21.39150391 31.90888672 22.33574219 31.90566406 23.30859375 31.90234375 C24.62041626 31.89448853 24.62041626 31.89448853 25.95874023 31.88647461 C28 32 28 32 29 33 C29.04080783 34.99958364 29.04254356 37.00045254 29 39 C27.00133314 39.34123581 25.00097458 39.6725678 23 40 C21.88625 40.185625 20.7725 40.37125 19.625 40.5625 C15.68605195 41.03789028 11.96323603 41.06953046 8 41 C8.03029297 41.80550293 8.06058594 42.61100586 8.09179688 43.44091797 C8.87805821 65.43506671 9.15823625 87.4338638 9.23217773 109.44073486 C9.24254044 112.43605559 9.25997395 115.43120657 9.28344727 118.42645264 C9.31096714 122.0131825 9.32316384 125.59965871 9.32407379 129.18649101 C9.32802103 131.16278799 9.34652258 133.13903904 9.36541748 135.11524963 C9.34605887 142.95716579 8.82251303 147.89014161 4.34277344 154.41308594 C0.88340196 156.75634507 -2.45737183 156.49603855 -6.484375 156.390625 C-7.70776581 156.38213531 -7.70776581 156.38213531 -8.95587158 156.37347412 C-11.55451772 156.35112727 -14.15177242 156.30093622 -16.75 156.25 C-18.51430297 156.22993271 -20.2786276 156.21168234 -22.04296875 156.1953125 C-26.36251328 156.1512683 -30.68102093 156.08225422 -35 156 C-34.85644531 146.66663076 -34.71046094 137.33330036 -34.5625 128 C-34.55147877 127.30469933 -34.54045753 126.60939865 -34.52910233 125.89302826 C-34.10607183 99.26009325 -33.59080189 72.62977785 -33 46 C-33.79954102 46.0714624 -34.59908203 46.1429248 -35.42285156 46.21655273 C-36.4847168 46.30880127 -37.54658203 46.4010498 -38.640625 46.49609375 C-40.21118652 46.63422485 -40.21118652 46.63422485 -41.81347656 46.77514648 C-46.21423941 47.08568147 -50.59131481 47.08778355 -55 47 C-56.03876383 43.88370851 -56.13361625 41.6405571 -56.125 38.375 C-56.12757813 37.39273438 -56.13015625 36.41046875 -56.1328125 35.3984375 C-56 33 -56 33 -55 32 C-53.57497622 32.2238397 -52.15665014 32.49043143 -50.7421875 32.7734375 C-43.06485748 33.7552499 -35.57402512 34.10897348 -28.94445801 29.60284424 C-18.18237334 21.02931668 -9.01135189 10.34573889 0 0 Z " fill="#FEFCFC" transform="translate(726,170)"/>
<path d="M0 0 C4.29081697 3.2447087 6.46596555 7.45082841 7.515625 12.6796875 C7.72022721 15.40461694 7.66236381 17.94056295 7.515625 20.6796875 C6.82339844 20.15181641 6.82339844 20.15181641 6.1171875 19.61328125 C3.9265888 17.95517986 1.72125055 16.31774165 -0.484375 14.6796875 C-1.25523437 14.091875 -2.02609375 13.5040625 -2.8203125 12.8984375 C-14.30384073 4.42515454 -24.41636917 1.32699463 -38.484375 2.6796875 C-42.9910822 3.48824379 -45.73086416 4.90733889 -48.984375 8.2421875 C-51.28253298 13.50879954 -51.44976507 18.31892331 -49.859375 23.85546875 C-45.05731998 34.89590775 -33.93526476 39.16981803 -23.609375 43.6796875 C-9.65954571 49.80517 3.44766507 55.80579376 10.390625 70.1171875 C13.85787466 79.06022304 14.1799615 89.27233914 10.765625 98.3046875 C4.90864117 110.52884538 -3.09210888 117.32691943 -15.734375 121.83984375 C-29.02241288 126.13077265 -41.66974739 125.89057891 -55.484375 125.6796875 C-56.27585937 125.67243652 -57.06734375 125.66518555 -57.8828125 125.65771484 C-59.93806374 125.63074424 -61.99266532 125.5629526 -64.046875 125.4921875 C-65.18253906 125.45738281 -66.31820312 125.42257812 -67.48828125 125.38671875 C-72.39708883 124.22831696 -74.65335552 120.96920049 -77.296875 116.8671875 C-78.78584735 112.87047225 -78.56737005 109.92990783 -78.484375 105.6796875 C-77.64777344 106.19917969 -76.81117188 106.71867187 -75.94921875 107.25390625 C-62.29707544 115.52576747 -47.75415508 121.90283822 -31.4609375 117.9453125 C-26.56240623 116.19275879 -23.15621507 114.32636588 -20.484375 109.6796875 C-18.72495815 104.00646582 -18.67316833 97.94252716 -20.671875 92.3671875 C-27.1301005 82.79119796 -37.25866386 78.69638749 -47.484375 74.1796875 C-60.8689122 68.2469558 -71.81206111 62.99601661 -77.7578125 48.85546875 C-81.39795616 37.95460844 -81.04155459 24.42834405 -75.95703125 14.16015625 C-70.11461477 4.31948127 -61.70063448 -0.82408642 -50.7109375 -3.77734375 C-49.60878906 -4.04611328 -49.60878906 -4.04611328 -48.484375 -4.3203125 C-47.8869751 -4.49159668 -47.2895752 -4.66288086 -46.67407227 -4.83935547 C-32.68023384 -7.91303834 -12.85932943 -6.83404614 0 0 Z " fill="#FEFCFC" transform="translate(647.484375,204.3203125)"/>
<path d="M0 0 C8.52668759 6.34472216 11.65854137 16.50201937 13.23828125 26.63671875 C14.42983547 35.4417502 14.52449232 44.22031419 14.52294922 53.09545898 C14.52732112 55.89954491 14.56376936 58.70205006 14.6015625 61.50585938 C14.69513164 76.58343137 13.8439812 94.80971778 3.30078125 106.6875 C-3.34552952 112.97455073 -9.94912557 114.10754573 -18.91796875 113.90625 C-25.08638716 113.26473449 -29.17352595 110.58517475 -33.53515625 106.2890625 C-44.62603466 92.61537678 -44.25066845 71.69214035 -44.16015625 54.9140625 C-44.15766876 54.17410034 -44.15518127 53.43413818 -44.15261841 52.67175293 C-43.97253871 17.93367767 -43.97253871 17.93367767 -33.84765625 3.6015625 C-24.8609853 -5.25288523 -10.83655674 -6.28766177 0 0 Z " fill="#000000" transform="translate(1264.84765625,209.3984375)"/>
<path d="M0 0 C3.61813285 3.2470423 5.90136828 6.57910483 7.4375 11.1875 C7.47704234 13.52049825 7.48151732 15.85458189 7.4375 18.1875 C6.98761719 17.82398438 6.53773437 17.46046875 6.07421875 17.0859375 C-4.88788196 8.5183638 -16.36558474 1.82459613 -30.5625 3.1875 C-39.91085063 4.62202951 -47.23392305 7.74193449 -53.875 14.5625 C-66.19558232 33.72785028 -66.54775507 63.21946187 -62.5 85.3125 C-60.32097804 94.56055562 -56.42851373 105.27973033 -48.51953125 111.08203125 C-38.60539002 116.68223478 -27.7704228 119.07957305 -16.625 116.0625 C-7.81167298 113.1108669 -0.33055297 108.50434944 6.4375 102.1875 C7.4375 104.1875 7.4375 104.1875 6.90625 106.61328125 C5.07459916 112.07130534 3.63172459 116.20846271 -1.45703125 119.203125 C-12.8971481 124.55175106 -24.2947052 126.57468583 -36.875 126.5 C-37.87974365 126.49436035 -38.8844873 126.4887207 -39.91967773 126.48291016 C-58.56997053 126.17970218 -75.9735106 120.27015243 -89.5625 107.1875 C-102.7955073 92.6802031 -107.40654965 75.02211135 -106.83984375 55.76953125 C-106.0267548 39.37617359 -99.2826588 25.56917046 -87.5625 14.1875 C-86.76972656 13.36378906 -86.76972656 13.36378906 -85.9609375 12.5234375 C-66.23291568 -6.39522958 -24.05722353 -12.23964004 0 0 Z " fill="#FEFCFC" transform="translate(1095.5625,203.8125)"/>
<path d="M0 0 C1.03125 0.00322266 2.0625 0.00644531 3.125 0.00976562 C4.74535156 0.02233398 4.74535156 0.02233398 6.3984375 0.03515625 C8.03039063 0.04192383 8.03039063 0.04192383 9.6953125 0.04882812 C12.3880781 0.0606385 15.08072147 0.07795415 17.7734375 0.09765625 C18.51517795 7.34672868 18.95805788 14.53963982 19.08984375 21.82421875 C19.11085144 22.83082047 19.13185913 23.83742218 19.15350342 24.87452698 C19.2197556 28.1571597 19.27893866 31.43985035 19.3359375 34.72265625 C19.35578705 35.85039459 19.3756366 36.97813293 19.39608765 38.14004517 C19.51861826 45.2604075 19.62567114 52.38090413 19.72338867 59.50164795 C19.77291208 63.05990499 19.82683807 66.61807834 19.88085938 70.17626953 C19.96297914 75.81093382 20.02040042 81.4453838 20.05953979 87.08050537 C20.0770128 89.20170764 20.10126664 91.32286586 20.13259888 93.44390869 C20.17440926 96.405541 20.19008899 99.36623516 20.19921875 102.328125 C20.2254129 103.61862511 20.2254129 103.61862511 20.25213623 104.93519592 C20.22770876 111.84214876 18.6258043 117.88586669 13.95800781 123.1418457 C10.83542026 124.508065 8.2205414 124.43384825 4.8203125 124.390625 C3.82998016 124.38425774 3.82998016 124.38425774 2.81964111 124.37776184 C0.72048359 124.3610306 -1.37769746 124.32339176 -3.4765625 124.28515625 C-4.90363192 124.27010209 -6.33071646 124.25641496 -7.7578125 124.24414062 C-11.24771067 124.21114626 -14.7370412 124.15940368 -18.2265625 124.09765625 C-18.35843578 104.29590634 -18.06861188 84.50497686 -17.65149689 64.70816994 C-17.55086633 59.92804182 -17.45790104 55.14803542 -17.3828125 50.36743164 C-17.30880236 45.66326752 -17.21616401 40.95980889 -17.11043549 36.2562542 C-17.07370798 34.48672072 -17.04336286 32.71704151 -17.01987457 30.94728279 C-16.72378771 9.48780467 -16.72378771 9.48780467 -9.6015625 2.53515625 C-6.03143209 0.37428785 -4.17140809 -0.02291982 0 0 Z " fill="#FEFCFC" transform="translate(1139.2265625,201.90234375)"/>
<path d="M0 0 C1.16337891 0.00966797 2.32675781 0.01933594 3.52539062 0.02929688 C4.74033203 0.05443359 5.95527344 0.07957031 7.20703125 0.10546875 C8.43357422 0.11900391 9.66011719 0.13253906 10.92382812 0.14648438 C13.95616789 0.18188134 16.98763121 0.23126115 20.01953125 0.29296875 C21.18007827 24.24925762 21.60272122 48.20714783 21.96948242 72.18664551 C22.01643508 75.10080249 22.0701797 78.01473084 22.12695312 80.92871094 C22.20589723 85.02346524 22.2649868 89.11794653 22.30563354 93.21325684 C22.3229526 94.6597286 22.34707573 96.10613827 22.37869263 97.55236816 C22.54919586 105.63252014 22.51555075 113.27816347 18.01953125 120.29296875 C15.59043108 122.78329212 14.30937916 123.26219723 10.81152344 123.63354492 C9.57563477 123.61783447 8.33974609 123.60212402 7.06640625 123.5859375 C6.07607391 123.57957024 6.07607391 123.57957024 5.06573486 123.57307434 C2.96657734 123.5563431 0.86839629 123.51870426 -1.23046875 123.48046875 C-2.65753817 123.46541459 -4.08462271 123.45172746 -5.51171875 123.43945312 C-9.00161692 123.40645876 -12.49094745 123.35471618 -15.98046875 123.29296875 C-16.2376129 98.18185388 -16.03200662 73.07755955 -15.39862061 47.97360229 C-15.32600526 45.07098792 -15.26452838 42.16846985 -15.21270752 39.26541138 C-15.13821228 35.144692 -15.02402625 31.02596133 -14.90625 26.90625 C-14.8882988 25.67872009 -14.8703476 24.45119019 -14.85185242 23.1864624 C-14.56660594 14.86487181 -13.00292024 8.00434477 -7.48657227 1.54321289 C-5.12304724 -0.41879257 -3.01229541 -0.04408237 0 0 Z " fill="#FEFDFC" transform="translate(787.98046875,202.70703125)"/>
<path d="M0 0 C1.16337891 0.00966797 2.32675781 0.01933594 3.52539062 0.02929688 C4.74033203 0.05443359 5.95527344 0.07957031 7.20703125 0.10546875 C8.43357422 0.11900391 9.66011719 0.13253906 10.92382812 0.14648438 C13.95616789 0.18188134 16.98763121 0.23126115 20.01953125 0.29296875 C20.81789032 16.04072385 21.30189979 31.77785732 21.58203125 47.54296875 C21.60221313 48.66773621 21.62239502 49.79250366 21.64318848 50.95135498 C21.76245399 57.70347996 21.87155219 64.45571042 21.97271729 71.20812988 C22.01635678 74.08378498 22.06330238 76.95936816 22.11083984 79.83496094 C22.17445904 83.81858484 22.22086628 87.80199292 22.2507019 91.78601074 C22.26304829 93.18393381 22.28038979 94.58182364 22.30325317 95.97961426 C22.58101898 113.79055959 22.58101898 113.79055959 16.84790039 121.03833008 C13.28999089 123.87452294 11.47236933 123.87707169 6.96875 123.78125 C5.76307373 123.76876221 4.55739746 123.75627441 3.31518555 123.7434082 C1.77912923 123.69759177 0.24307879 123.65157848 -1.29296875 123.60546875 C-3.91298257 123.54800074 -6.53299127 123.49217889 -9.15307617 123.43823242 C-10.44171066 123.41081467 -11.73034515 123.38339691 -13.05802917 123.35514832 C-14.50463676 123.32436943 -14.50463676 123.32436943 -15.98046875 123.29296875 C-16.08035083 100.45782917 -15.91981908 77.63639911 -15.40063477 54.80664062 C-15.32489247 51.4213326 -15.26305699 48.03616185 -15.2121582 44.65039062 C-15.14902746 40.46085077 -15.06241038 36.27240244 -14.95921898 32.08366394 C-14.92443688 30.51791704 -14.89761256 28.95196912 -14.87951088 27.38594055 C-14.75954708 17.63916525 -14.0810319 9.22985463 -7.48657227 1.55412292 C-5.12562912 -0.42284165 -3.01924876 -0.04418413 0 0 Z " fill="#FEFDFD" transform="translate(94.98046875,202.70703125)"/>
<path d="M0 0 C0.70374756 0.00644531 1.40749512 0.01289063 2.13256836 0.01953125 C10.54713866 0.3128496 16.42472491 3.22963403 22.1875 9.375 C28.5261645 17.44782743 29.23682284 24.32551623 28.25 34.5 C26.56898669 42.20728742 22.53136015 47.79169205 16.25 52.5 C8.90507434 56.81194641 1.41005272 57.64943013 -6.90625 56.09765625 C-14.58298082 53.76722011 -20.80166696 47.7355221 -24.8125 40.9375 C-28.06059885 33.59249597 -28.11977125 25.22508247 -25.8984375 17.5625 C-21.15373576 6.97568251 -11.71913654 -0.11215826 0 0 Z " fill="#FDF9F8" transform="translate(932.75,402.5)"/>
<path d="M0 0 C0.15002878 4.90709521 0.25799026 9.81281246 0.32958984 14.72167969 C0.35948167 16.38597917 0.40021203 18.05012504 0.45263672 19.71386719 C0.81137743 31.40459382 0.29726587 41.20087303 -8.11376953 50.28222656 C-14.01863123 55.86602713 -19.28621437 57.47885657 -27.34375 57.31640625 C-32.31779158 56.72391012 -34.92752285 54.13205922 -38.25 50.625 C-43.24168881 43.13746678 -43.02415917 33.67806998 -42 25 C-39.5745691 16.3485746 -34.35145245 11.50393797 -26.7890625 7.15234375 C-17.9530048 2.38425749 -10.06863622 -0.04215338 0 0 Z " fill="#000000" transform="translate(507,258)"/>
<path d="M0 0 C0.79019531 -0.01611328 1.58039063 -0.03222656 2.39453125 -0.04882812 C7.37592857 -0.05297238 10.83795509 0.51436889 15.125 3.3125 C18.75448428 6.96730626 20.45361676 11.0662636 20.6875 16.1875 C20.20016466 24.54914852 16.84774462 31.57758331 11.1015625 37.6171875 C5.58959462 42.34484374 -0.37983284 44.02303852 -7.58203125 43.69921875 C-12.2458754 42.91264197 -14.91524464 40.32709852 -18.0625 37 C-22.86347187 29.88131757 -23.88633039 23.8576736 -22.875 15.3125 C-20.9128254 8.57237484 -16.90841617 5.06255648 -11.2421875 1.19921875 C-7.54510611 -0.18566157 -3.91436438 -0.01580923 0 0 Z " fill="#FEFCFB" transform="translate(1141.875,141.6875)"/>
<path d="M0 0 C5.10857818 5.36400709 5.41175823 9.29967134 5.33984375 16.5390625 C4.57577464 24.32027209 0.50539969 30.39924308 -5.19140625 35.59375 C-10.98009046 40.09467077 -16.91450654 40.85494384 -24 40 C-30.2167088 37.8126395 -32.82310846 34.31175123 -35.75 28.5625 C-38.03178781 21.83186333 -38.51092979 13.91292075 -35.93359375 7.23828125 C-32.13388163 0.97445065 -27.39225131 -1.64853806 -20.5625 -3.75 C-12.79264091 -4.50803503 -6.81804535 -4.24932285 0 0 Z " fill="#FEFCFC" transform="translate(810,145)"/>
<path d="M0 0 C5.10857818 5.36400709 5.41175823 9.29967134 5.33984375 16.5390625 C4.570301 24.37601514 0.47867527 30.38191475 -5.26171875 35.59375 C-10.4773914 39.81317057 -14.8160861 40.48996611 -21.37890625 40.28515625 C-26.10623853 39.77085632 -28.87240486 38.12759514 -32.1875 34.8125 C-37.27843047 26.9127803 -38.14753886 19.28856929 -37 10 C-34.95089309 4.30803637 -31.38565772 0.74562943 -26 -2 C-16.99132271 -5.32099544 -8.2503861 -5.1420242 0 0 Z " fill="#FEFCFC" transform="translate(114,145)"/>
<path d="M0 0 C0.66 0 1.32 0 2 0 C6.06683031 9.66474709 10.12304887 19.33388382 14.16711426 29.00817871 C14.94373305 30.86543927 15.72133971 32.72228667 16.49902344 34.57910156 C17.7760849 37.63365756 19.0457962 40.69113714 20.3125 43.75 C20.69075928 44.65250488 21.06901855 45.55500977 21.45874023 46.48486328 C21.79848877 47.30970215 22.1382373 48.13454102 22.48828125 48.984375 C22.78259033 49.69303711 23.07689941 50.40169922 23.38012695 51.13183594 C24 53 24 53 24 56 C20.7 56 17.4 56 14 56 C12 52 12 52 12 49 C1.605 49.495 1.605 49.495 -9 50 C-9.99 51.98 -10.98 53.96 -12 56 C-15.3 56 -18.6 56 -22 56 C-19.79895298 49.15058795 -17.26578252 42.50060176 -14.55078125 35.83984375 C-14.13330124 34.80936417 -13.71582123 33.77888458 -13.28569031 32.71717834 C-11.96388689 29.45622644 -10.63825802 26.19684586 -9.3125 22.9375 C-8.41055316 20.71429579 -7.50885791 18.4909895 -6.60742188 16.26757812 C-4.40785593 10.84386816 -2.20515495 5.42143984 0 0 Z " fill="#FDF9F8" transform="translate(598,401)"/>
<path d="M0 0 C4.27411974 1.95468496 7.62359169 5.26903722 10.5 8.9375 C10.995 10.4225 10.995 10.4225 11.5 11.9375 C8.53 13.5875 5.56 15.2375 2.5 16.9375 C1.778125 16.174375 1.05625 15.41125 0.3125 14.625 C-3.59003753 10.89590858 -6.37243976 8.78557058 -11.8125 8.375 C-17.3251771 8.58631929 -20.78002712 10.99919914 -24.5 14.9375 C-27.8494108 19.43797592 -29.23033999 24.0297754 -28.94921875 29.6328125 C-27.84788873 35.28311435 -24.93850164 39.5332484 -20.875 43.5 C-16.02745953 45.56469316 -11.69111001 45.70998661 -6.5 44.9375 C-2.46100786 42.91800393 0.06295579 40.72845766 2.5 36.9375 C5.98539917 37.58294429 8.52819057 39.03884397 11.5 40.9375 C10.10692831 46.20021525 6.89093225 49.01021183 2.5 51.9375 C-4.7645536 55.66719419 -13.43101632 56.49718729 -21.2421875 54.09375 C-29.42879575 50.41102045 -34.57872557 44.84825712 -37.9375 36.5625 C-40.48458247 28.57943632 -40.63456073 21.67813139 -36.828125 14.10546875 C-32.85027911 7.61222031 -28.31427627 3.27783151 -21.5 -0.0625 C-16.06608538 -2.77945731 -5.72495214 -1.84420395 0 0 Z " fill="#FDF9F8" transform="translate(866.5,404.0625)"/>
<path d="M0 0 C4.70391311 2.48024509 8.40038833 4.69113522 10.8125 9.625 C11.01875 10.346875 11.225 11.06875 11.4375 11.8125 C6.10416667 15.8125 6.10416667 15.8125 3.375 15.8125 C0.77408183 14.47009062 -1.30847434 12.67207117 -3.5625 10.8125 C-7.24229469 8.27471056 -11.24386495 8.06143303 -15.5625 8.8125 C-20.4695055 10.80374861 -24.55328609 13.79593412 -26.9375 18.66015625 C-28.64609151 24.54411826 -28.77972923 31.31129853 -25.875 36.8125 C-23.17588212 40.31405834 -20.52333095 42.83208453 -16.5625 44.8125 C-11.25114048 45.34190021 -6.88977259 45.47613629 -2.0625 43.0625 C0.12684855 41.0920863 1.84881711 39.28378449 3.4375 36.8125 C6.91473736 38.06816905 9.53132458 39.54593156 12.4375 41.8125 C7.0318196 49.02604041 1.39532885 53.91955759 -7.7421875 55.2890625 C-16.89197269 55.69811172 -23.35542394 53.27165143 -30.375 47.5 C-37.83301616 38.33729444 -39.58010394 30.53861051 -38.5625 18.8125 C-36.12428073 10.16479707 -30.30684657 4.64583704 -22.76953125 0.14453125 C-16.00172445 -2.66645793 -6.94474385 -2.35073535 0 0 Z " fill="#FDF9F8" transform="translate(475.5625,404.1875)"/>
<path d="M0 0 C5.64902793 2.22886816 9.09609892 5.65682202 12 11 C13.78015464 16.34046392 14.01802924 21.45129108 11.90625 26.73828125 C8.78864761 32.33504087 6.04346895 35.7465031 0 38 C-4.67376963 38.7803452 -8.5831856 38.5313052 -12.8125 36.3125 C-17.06669585 33.22612262 -20.00674121 29.86864063 -22 25 C-22.64317467 19.21142801 -22.85005993 13.83089832 -20.375 8.5 C-14.03884776 1.83036606 -9.39225609 -1.20836043 0 0 Z " fill="#000000" transform="translate(938,412)"/>
<path d="M0 0 C3.97269098 1.66356435 6.97251343 3.97251343 10 7 C9.875 8.9375 9.875 8.9375 9 11 C6.9375 12.75 6.9375 12.75 5 14 C2.50638429 12.79618552 0.31856917 11.54571278 -2 10 C-5.5 9.41666667 -5.5 9.41666667 -9 10 C-11.15254366 12.14298293 -11.15254366 12.14298293 -12 15 C-11.88139779 17.07162132 -11.88139779 17.07162132 -11 19 C-9.40234689 20.26878925 -9.40234689 20.26878925 -7.359375 21.1484375 C-6.61816406 21.51453125 -5.87695312 21.880625 -5.11328125 22.2578125 C-3.55355003 22.99513999 -1.99365748 23.73212632 -0.43359375 24.46875 C4.64800029 26.97882927 7.87877862 29.20472471 11 34 C12.16226091 39.13993646 11.61441785 43.70026994 9.375 48.4375 C4.33815847 53.87198691 -0.42691422 56.07101412 -7.6875 56.375 C-13.42686847 56.31565646 -17.45000605 54.41017877 -22 51 C-26 46.80487805 -26 46.80487805 -26 44 C-23.69 42.68 -21.38 41.36 -19 40 C-18.57589844 40.433125 -18.15179687 40.86625 -17.71484375 41.3125 C-14.51233489 44.35312379 -12.79961301 45.8915779 -8.3125 46.5 C-5.3548867 46.0535678 -3.44000219 45.68923229 -1 44 C0.35439668 41.29120665 0.06501451 38.99066732 0 36 C-0.51908936 35.73372803 -1.03817871 35.46745605 -1.57299805 35.19311523 C-3.95411335 33.95886618 -6.32048695 32.69856863 -8.6875 31.4375 C-9.50412109 31.01919922 -10.32074219 30.60089844 -11.16210938 30.16992188 C-16.70201011 27.1868984 -19.85799211 24.4922298 -23 19 C-23.93243314 14.75005698 -23.33152768 11.63849775 -21.3125 7.75 C-14.99245852 0.234275 -9.58170149 -1.10189567 0 0 Z " fill="#FDF9F8" transform="translate(741,403)"/>
<path d="M0 0 C4.75044219 1.64106185 7.70722875 4.22299768 11 8 C11 8.66 11 9.32 11 10 C9.03852126 11.38938077 7.03833424 12.7260411 5 14 C2.50638429 12.79618552 0.31856917 11.54571278 -2 10 C-6.07490752 9.66042437 -7.53001271 9.68667514 -11 12 C-11.91828794 14.86871868 -11.91828794 14.86871868 -11 18 C-8.60692962 20.15249717 -5.85174582 21.53635562 -3 23 C3.54248074 26.35789574 8.58770597 29.17541193 12 36 C12.61210823 41.07175393 12.43764335 43.9987763 9.5 48.25 C5.48722024 53.00172988 1.49041639 55.46497267 -4.67578125 56.41015625 C-12.42158999 56.82797996 -16.85460333 54.5589747 -22.6015625 49.625 C-24 48.3125 -24 48.3125 -26 46 C-26 45.34 -26 44.68 -26 44 C-23.1875 41.8125 -23.1875 41.8125 -20 40 C-17 41 -17 41 -14.8125 43.5625 C-11.57291037 46.37014435 -10.09609652 46.76420945 -5.94140625 46.48828125 C-2.49753824 45.62211726 -0.96299128 43.84950346 1 41 C1.49014192 38.36493357 1.49014192 38.36493357 0 36 C-2.33874156 34.44083896 -4.49174356 33.21909671 -7 32 C-18.97432638 26.08547137 -18.97432638 26.08547137 -22 20 C-22.89725967 15.53320731 -23.10648326 11.22646022 -21.0390625 7.06640625 C-15.27421666 -0.29570579 -8.73972538 -0.86684776 0 0 Z " fill="#FDF9F8" transform="translate(675,403)"/>
<path d="M0 0 C2.97 0 5.94 0 9 0 C9 14.52 9 29.04 9 44 C15.93 44 22.86 44 30 44 C30 46.97 30 49.94 30 53 C20.1 53 10.2 53 0 53 C0 35.51 0 18.02 0 0 Z " fill="#FEFCFC" transform="translate(519,404)"/>
<path d="M0 0 C3.3 0 6.6 0 10 0 C10 17.49 10 34.98 10 53 C6.7 53 3.4 53 0 53 C0 35.51 0 18.02 0 0 Z " fill="#FEFAF9" transform="translate(785,404)"/>
<path d="M0 0 C2.36775721 2.36775721 2.99896496 4.29711338 4.125 7.4375 C4.47820313 8.40558594 4.83140625 9.37367188 5.1953125 10.37109375 C6 13 6 13 6 16 C2.04 16 -1.92 16 -6 16 C-4.3967597 10.35048657 -2.85403778 5.16444932 0 0 Z " fill="#000000" transform="translate(599,425)"/>
</svg>
